# xmcd
#
# Track frame offsets: 
#        150
#        19275
#        37350
#        54675
#        75148
#        93597
#        112797
#        132822
#        149546
#        164695
#
# Disc length: 2411 seconds
#
# Revision: 0
# Processed by: cddbd v1.5.2PL0 Copyright (c) Steve Scherf et al.
# Submitted via: ExactAudioCopy v0.99pb4
#
DISCID=8609690a
DTITLE=Apaporn Nakornsawan - Chun klua lhuk-see
DYEAR=2003
DGENRE=Thai
TTITLE0=Chun klua lhuk-see
TTITLE1=Karb thao kor aow
TTITLE2=See-krong kai
TTITLE3=Hai mai chai hi-so
TTITLE4=10 pee tee pen mhai
TTITLE5=Kra-dard paen sood tai
TTITLE6=Farng sen sood tai
TTITLE7=Bang san saen chum
TTITLE8=Nam ta lon pon nam lhao
TTITLE9=Jod mai tuang sunya
EXTD=
EXTT0=
EXTT1=
EXTT2=
EXTT3=
EXTT4=
EXTT5=
EXTT6=
EXTT7=
EXTT8=
EXTT9=
PLAYORDER=
